<svg height="200px" width="200px" version="1.1" id="Layer_1" xmlns="http://www.w3.org/2000/svg" xmlns:xlink="http://www.w3.org/1999/xlink" viewBox="0 0 512 512" xml:space="preserve" fill="#000000"><g id="SVGRepo_bgCarrier" stroke-width="0"></g><g id="SVGRepo_tracerCarrier" stroke-linecap="round" stroke-linejoin="round"></g><g id="SVGRepo_iconCarrier"> <circle style="fill:#45B39C;" cx="256" cy="256" r="256"></circle> <path style="opacity:0.1;enable-background:new ;" d="M508.48,298.171L319.653,109.344l-46.24,38.88h-34.827l-46.24-38.88 l-18.613,30.08l57.787,57.787l2.213,3.653L207.12,361.877l48.8,40.8l92.176,92.176C431.312,462.747,493.509,388.464,508.48,298.171z "></path> <g> <polygon style="fill:#D15241;" points="291.707,178.576 273.077,148.496 319.653,109.333 338.283,139.413 "></polygon> <polygon style="fill:#D15241;" points="220.293,178.576 238.923,148.496 192.347,109.333 173.717,139.413 "></polygon> </g> <polygon style="fill:#E56353;" points="278.155,200.843 291.936,178.187 273.707,148.208 238.197,148.208 219.968,178.187 233.749,200.843 "></polygon> <polygon style="fill:#D15241;" points="304.693,361.883 255.909,402.667 207.125,361.883 233.749,200.843 278.069,200.843 "></polygon> </g></svg>