<svg version="1.1" id="Layer_1" xmlns="http://www.w3.org/2000/svg" xmlns:xlink="http://www.w3.org/1999/xlink" viewBox="0 0 512 512" xml:space="preserve" fill="#000000"><g id="SVGRepo_bgCarrier" stroke-width="0"></g><g id="SVGRepo_tracerCarrier" stroke-linecap="round" stroke-linejoin="round"></g><g id="SVGRepo_iconCarrier"> <circle style="fill:#E05B49;" cx="256" cy="256" r="256"></circle> <path style="opacity:0.1;enable-background:new ;" d="M512,256c0-0.395-0.027-0.784-0.032-1.179L400,142.853 c-0.251-0.277-0.507-0.539-0.784-0.784l0,0c-1.824-1.637-4.213-2.667-6.859-2.667H119.648c-5.696,0-10.315,4.619-10.315,10.309 v212.571c0,2.923,1.227,5.547,3.179,7.424l142.261,142.261c0.411,0.005,0.816,0.032,1.227,0.032C397.387,512,512,397.387,512,256z"></path> <path style="fill:#2F4859;" d="M392.352,139.403H119.648c-5.696,0-10.315,4.619-10.315,10.309v212.571 c0,5.696,4.619,10.309,10.315,10.309h272.709c5.696,0,10.315-4.619,10.315-10.309V149.717 C402.667,144.021,398.048,139.403,392.352,139.403z"></path> <rect x="130.667" y="160.747" style="fill:#44C4A1;" width="250.667" height="190.528"></rect> <g> <path style="fill:#FFFFFF;" d="M176.608,257.072v-8.192h7.168v8.192h5.381v6.848h-5.381v11.264h-7.168V263.92h-19.2v-6.656 l16.448-26.816h8.256l-16.192,26.624H176.608z"></path> <path style="fill:#FFFFFF;" d="M219.808,241.136l7.296,11.2l7.552-11.2h8.512l-11.909,16.635l12.416,17.413h-8.832l-8.123-11.328 l-7.936,11.328H210.4l12.101-17.344l-11.461-16.704H219.808z"></path> <path style="fill:#FFFFFF;" d="M293.536,230.384v6.848h-18.88v11.008c1.877-1.024,4.011-1.536,6.4-1.536 c4.181,0,7.787,1.253,10.811,3.776c3.029,2.517,4.549,5.925,4.549,10.24c0,4.309-1.579,7.883-4.736,10.72 c-3.163,2.837-7.04,4.256-11.653,4.256c-6.016,0-10.811-2.005-14.4-6.016l4.037-5.504c0.341,0.341,0.795,0.752,1.376,1.221 c0.571,0.469,1.76,1.099,3.552,1.888c1.792,0.789,3.749,1.189,5.888,1.189c2.133,0,4.075-0.64,5.824-1.92s2.624-3.147,2.624-5.6 c0-2.453-0.928-4.352-2.779-5.696c-1.861-1.344-4.203-2.016-7.04-2.016s-5.536,0.704-8.096,2.112l-3.205-3.451V230.4h25.728 V230.384z"></path> <path style="fill:#FFFFFF;" d="M320.859,241.392h32.256v6.016h-32.256V241.392z M320.859,253.424h32.256v6.016h-32.256V253.424z"></path> </g> </g></svg>