<svg version="1.1" id="Layer_1" xmlns="http://www.w3.org/2000/svg" xmlns:xlink="http://www.w3.org/1999/xlink" viewBox="0 0 512 512" xml:space="preserve" fill="#000000"><g id="SVGRepo_bgCarrier" stroke-width="0"></g><g id="SVGRepo_tracerCarrier" stroke-linecap="round" stroke-linejoin="round"></g><g id="SVGRepo_iconCarrier"> <circle style="fill:#334D5C;" cx="256" cy="256" r="256"></circle> <path style="opacity:0.1;enable-background:new ;" d="M508.048,300.592L316.8,109.344H195.2v47.893h10.933v23.947 c0,4.053-2.88,7.627-6.827,8.32c-36.853,6.293-68,19.04-81.653,38.293c-22.56,31.68,4.533,119.84,37.227,159.733 c3.893,4.747,7.84,8.853,11.787,12.053l111.403,111.403C394.224,501.061,488.181,413.621,508.048,300.592z"></path> <path style="fill:#EBF0F3;" d="M394.368,227.808c-13.701-19.243-44.837-32.011-81.685-38.32c-3.941-0.677-6.8-4.219-6.8-8.315 V155.12h-99.765v26.053c0,4.091-2.859,7.637-6.8,8.315c-36.853,6.309-67.989,19.083-81.685,38.32 c-22.549,31.669,4.528,119.819,37.232,159.733c3.888,4.741,7.845,8.843,11.819,12.048c2.533,2.043,5.691,3.083,8.917,3.083h160.795 c3.227,0,6.389-1.035,8.923-3.083c3.968-3.205,7.931-7.307,11.813-12.048C389.84,347.627,416.917,259.472,394.368,227.808z"></path> <path style="fill:#FCD462;" d="M372.651,243.269c-6.459-9.061-26.784-21.051-64.448-27.504c-37.024-5.781-71.685-5.44-104.379-0.005 c-37.685,6.459-58.011,18.443-64.464,27.509c-9.685,13.6,0.896,71.493,25.227,111.776c2.224,3.685,6.309,5.829,10.613,5.829h161.611 c4.304,0,8.389-2.149,10.613-5.829C371.744,314.763,382.331,256.869,372.651,243.269z"></path> <circle style="fill:#FFFFFF;" cx="256" cy="261.707" r="31.387"></circle> <g> <path style="fill:#64798A;" d="M185.728,311.557h4.4v26.085h-4.4V311.557z"></path> <path style="fill:#64798A;" d="M216.923,311.557h4.4v26.085h-4.779l-14.779-19.029v19.029h-4.4v-26.085h4.4l15.152,19.477v-19.477 H216.923z"></path> <path style="fill:#64798A;" d="M228.56,311.557h4.4v12.725l11.941-12.725h5.595l-10.485,11.424l10.635,14.661h-5.221l-8.656-11.419 l-3.808,4.101v7.312h-4.4L228.56,311.557L228.56,311.557z"></path> <path style="fill:#64798A;" d="M272.437,313.835c1.819,1.52,2.725,3.861,2.725,7.013c0,3.163-0.928,5.472-2.779,6.944 c-1.856,1.467-4.699,2.197-8.528,2.197h-4.629v7.653h-4.4v-26.085h8.955C267.739,311.557,270.624,312.32,272.437,313.835z M269.323,324.603c0.885-0.933,1.323-2.299,1.323-4.107c0-1.803-0.56-3.077-1.68-3.824c-1.12-0.747-2.875-1.12-5.259-1.12h-4.48 V326h5.115C266.779,326,268.437,325.531,269.323,324.603z"></path> <path style="fill:#64798A;" d="M302.176,334.043c-2.64,2.571-5.893,3.861-9.776,3.861c-3.883,0-7.141-1.285-9.776-3.861 c-2.635-2.576-3.952-5.787-3.952-9.632c0-3.84,1.317-7.051,3.952-9.627c2.635-2.571,5.893-3.861,9.776-3.861 c3.883,0,7.136,1.285,9.776,3.861c2.635,2.571,3.952,5.787,3.952,9.627C306.128,328.256,304.811,331.467,302.176,334.043z M298.949,317.717c-1.776-1.84-3.963-2.763-6.549-2.763s-4.773,0.923-6.549,2.763c-1.781,1.845-2.672,4.08-2.672,6.699 c0,2.624,0.891,4.859,2.672,6.699c1.776,1.845,3.957,2.763,6.549,2.763c2.581,0,4.773-0.917,6.549-2.763 c1.781-1.84,2.667-4.075,2.667-6.699C301.616,321.792,300.731,319.557,298.949,317.717z"></path> <path style="fill:#64798A;" d="M320.832,315.589v22.053h-4.4v-22.053h-7.909v-4.032h20.224v4.032L320.832,315.589L320.832,315.589z "></path> </g> <path style="fill:#E56353;" d="M256.011,239.995c-3.2,16.651-14.827,20.027-14.395,30.341c0.331,7.947,6.443,14.395,14.395,14.395 c7.952,0,14.395-6.443,14.395-14.395C270.405,262.384,257.509,232.187,256.011,239.995z"></path> <path style="fill:#D15241;" d="M259.701,248.363c3.12,6.987,6.272,15.963,6.272,19.584c0,6.101-4.965,11.072-11.067,11.072 c-3.979,0-7.392-2.096-9.339-5.344c1.515,4.581,5.557,7.728,10.443,7.728c6.101,0,11.072-4.965,11.072-11.072 C267.077,266.277,263.136,255.531,259.701,248.363z"></path> <path style="fill:#D5D6DB;" d="M154.864,387.541c3.888,4.741,7.845,8.843,11.813,12.048c2.533,2.043,5.696,3.077,8.923,3.077 h160.795c3.227,0,6.384-1.035,8.923-3.077c3.968-3.205,7.931-7.307,11.813-12.048H154.864z"></path> <rect x="195.205" y="109.333" style="fill:#64798A;" width="121.584" height="47.915"></rect> </g></svg>